<?xml version="1.0" standalone="no"?>
<!DOCTYPE svg PUBLIC "-//W3C//DTD SVG 20010904//EN"
 "http://www.w3.org/TR/2001/REC-SVG-20010904/DTD/svg10.dtd">
<svg version="1.0" xmlns="http://www.w3.org/2000/svg"
 width="275.000000pt" height="183.000000pt" viewBox="0 0 275.000000 183.000000"
 preserveAspectRatio="xMidYMid meet">

<g transform="translate(0.000000,183.000000) scale(0.100000,-0.100000)"
fill="#000000" stroke="none">
<path d="M396 1799 c-64 -40 -266 -182 -338 -237 l-58 -43 0 -263 0 -263 25
-13 c13 -7 37 -31 52 -54 15 -23 35 -46 43 -53 11 -9 12 -12 2 -13 -7 0 -10
-4 -7 -10 3 -5 -3 -10 -14 -10 -12 0 -21 5 -21 10 0 6 -17 26 -37 46 l-38 35
-3 -35 c-4 -46 21 -69 143 -132 89 -46 90 -47 138 -34 42 11 54 10 88 -5 38
-18 39 -18 76 7 21 14 81 68 134 119 53 52 141 134 195 184 54 49 101 92 104
95 3 3 31 27 63 54 80 68 101 100 98 150 -3 48 -6 52 -96 129 -38 33 -108 96
-155 141 -47 45 -121 114 -166 154 -77 69 -83 72 -130 72 -39 0 -61 -7 -98
-31z m-319 -824 c0 -8 -4 -12 -9 -9 -5 3 -6 10 -3 15 9 13 12 11 12 -6z m53
-36 c0 -6 -4 -7 -10 -4 -5 3 -10 11 -10 16 0 6 5 7 10 4 6 -3 10 -11 10 -16z"/>
<path d="M1820 1820 c-9 -6 -11 -12 -5 -17 6 -5 24 -21 42 -37 l32 -29 30 25
29 25 -28 22 c-31 22 -75 27 -100 11z m91 -27 c13 -15 12 -15 -9 -4 -12 7 -32
9 -42 6 -12 -4 -20 -2 -20 4 0 17 56 13 71 -6z"/>
<path d="M2063 1804 c-18 -14 -33 -28 -33 -32 0 -4 16 -20 35 -35 l36 -29 34
26 c18 14 39 26 45 26 6 0 -9 16 -34 35 -26 19 -47 35 -49 35 -1 0 -17 -12
-34 -26z m33 -11 c-3 -4 6 -12 21 -19 19 -8 22 -13 11 -13 -10 -1 -18 -9 -18
-18 -1 -15 -4 -14 -22 7 -11 14 -25 24 -31 22 -6 -2 -5 4 3 12 7 9 19 16 28
16 8 0 12 -3 8 -7z"/>
<path d="M2394 1821 c8 -13 254 -211 269 -217 7 -2 29 14 49 36 l37 40 -94 75
-95 75 -85 0 c-48 0 -84 -4 -81 -9z"/>
<path d="M1735 1750 l-25 -26 25 -24 c14 -13 25 -19 25 -13 0 6 -6 14 -12 16
-10 4 -10 6 0 6 6 1 12 8 12 16 0 18 17 19 34 2 10 -10 10 -15 1 -24 -7 -7
-15 -9 -18 -6 -3 2 -4 -3 -3 -13 4 -26 20 -27 47 -5 l24 20 -42 39 -42 39 -26
-27z"/>
<path d="M1152 1730 c0 -14 2 -19 5 -12 2 6 2 18 0 25 -3 6 -5 1 -5 -13z"/>
<path d="M1939 1702 l-32 -28 40 -32 40 -31 34 29 34 28 -29 31 c-37 38 -47
38 -87 3z m37 -8 c-4 -10 -1 -14 6 -12 7 3 19 -2 27 -10 12 -12 12 -15 1 -22
-15 -9 -40 1 -59 24 -10 12 -9 16 6 25 24 14 26 14 19 -5z"/>
<path d="M1142 1687 c-21 -9 -23 -16 -18 -46 3 -20 6 -44 6 -53 0 -13 8 -18
28 -18 36 0 39 -26 5 -35 -20 -5 -24 -10 -19 -33 3 -15 8 -49 11 -77 10 -79
64 -402 81 -485 32 -157 36 -172 45 -159 10 16 14 6 29 -61 9 -43 9 -43 4 15
-4 56 -4 59 11 40 9 -11 14 -14 10 -7 -3 7 0 12 8 12 8 0 22 9 32 20 20 22 14
26 -16 10 -11 -6 -19 -7 -19 -1 0 5 6 11 14 14 7 3 16 17 18 31 5 23 3 24 -16
14 -20 -11 -20 -10 -6 7 8 10 10 16 4 12 -7 -4 -18 1 -25 10 -10 12 -10 14 -1
9 6 -4 12 -3 12 1 0 5 -6 15 -12 22 -11 11 -10 12 2 5 34 -20 38 -10 10 24
-29 36 -41 70 -19 56 6 -3 4 5 -6 19 -9 14 -17 45 -18 69 -1 24 -6 46 -10 49
-4 3 -10 64 -12 135 -3 71 -7 149 -10 174 -7 54 -44 152 -55 145 -4 -3 -13 15
-19 40 -13 52 -18 56 -49 42z"/>
<path d="M1634 1648 c-37 -42 -47 -77 -29 -104 13 -20 19 -23 36 -14 11 6 17
16 13 21 -4 7 4 6 17 -1 13 -7 21 -9 16 -5 -4 5 5 21 20 37 l27 28 -34 30
c-40 36 -41 36 -66 8z m46 -18 c0 -5 7 -10 15 -10 8 0 15 -6 15 -13 0 -18 -31
-35 -57 -31 -13 2 -23 -1 -23 -6 0 -6 -4 -10 -10 -10 -5 0 -10 7 -10 15 0 8 5
15 11 15 6 0 9 6 6 14 -3 7 0 19 6 25 14 14 47 15 47 1z"/>
<path d="M2218 1653 c6 -2 18 -2 25 0 6 3 1 5 -13 5 -14 0 -19 -2 -12 -5z"/>
<path d="M1827 1611 l-36 -28 32 -32 c18 -17 37 -31 43 -31 5 0 25 13 43 28
l34 28 -40 32 -41 32 -35 -29z m34 -15 c-10 -12 -8 -13 9 -9 16 4 19 2 13 -12
-5 -14 -3 -16 8 -10 12 7 12 5 1 -6 -11 -12 -14 -12 -22 1 -5 8 -10 11 -10 7
0 -4 -10 -2 -22 4 -21 11 -21 12 -3 25 25 18 41 18 26 0z"/>
<path d="M2103 1555 c17 -19 17 -19 35 0 16 18 16 18 0 6 -15 -11 -21 -11 -35
0 -17 12 -17 12 0 -6z"/>
<path d="M2348 1562 c-21 -4 -23 -17 -6 -28 7 -4 8 -3 4 4 -4 7 -1 12 9 12 9
0 13 -5 9 -11 -4 -8 0 -7 15 1 18 9 21 30 5 30 -3 0 -2 -4 1 -10 3 -5 2 -10
-4 -10 -5 0 -11 4 -13 8 -1 4 -11 6 -20 4z"/>
<path d="M1719 1514 l-24 -26 29 8 c21 5 27 4 22 -4 -5 -8 -2 -10 8 -6 21 8
20 -6 -1 -21 -13 -10 -20 -8 -35 7 -10 10 -22 18 -28 18 -21 0 -8 -29 24 -53
l33 -26 37 26 c20 15 36 30 36 34 0 4 -17 21 -39 38 l-38 30 -24 -25z"/>
<path d="M2465 1510 c-3 -6 1 -7 9 -4 18 7 21 14 7 14 -6 0 -13 -4 -16 -10z"/>
<path d="M2010 1469 c0 -5 5 -7 10 -4 6 3 10 8 10 11 0 2 -4 4 -10 4 -5 0 -10
-5 -10 -11z"/>
<path d="M2243 1452 c0 -12 5 -22 9 -22 11 0 10 12 -2 30 -7 12 -9 10 -7 -8z"/>
<path d="M1980 1450 c-9 -6 -10 -10 -3 -10 6 0 15 5 18 10 8 12 4 12 -15 0z"/>
<path d="M2486 1452 c-2 -4 -1 -14 4 -22 8 -13 12 -12 27 4 16 18 16 19 1 7
-16 -12 -22 -9 -19 12 1 9 -7 9 -13 -1z"/>
<path d="M1607 1365 c71 -81 284 -293 328 -326 17 -13 59 -48 95 -80 36 -31
121 -99 190 -151 167 -126 214 -138 346 -87 28 11 57 19 65 17 8 -2 14 4 14
12 0 8 11 21 24 28 20 10 27 10 41 -3 16 -15 17 -14 12 11 -3 18 0 30 12 36
10 6 16 22 16 48 0 22 -2 40 -5 40 -2 0 -56 -40 -120 -90 -195 -151 -218 -146
-540 114 -151 122 -186 154 -369 334 -94 92 -142 136 -109 97z"/>
<path d="M2355 1410 c-3 -6 1 -7 9 -4 18 7 21 14 7 14 -6 0 -13 -4 -16 -10z"/>
<path d="M2615 1390 c8 -12 -12 -40 -27 -40 -6 0 -4 8 3 18 12 15 12 16 -1 5
-18 -14 -26 -73 -9 -73 15 0 70 -56 62 -64 -4 -3 -1 -6 4 -6 6 0 30 18 53 39
39 37 46 61 16 61 -6 0 -27 16 -46 35 -31 32 -70 50 -55 25z m64 -81 c-8 -4
-19 -3 -26 3 -7 5 -19 8 -28 5 -8 -4 -17 -2 -20 3 -8 12 46 18 69 7 15 -7 16
-11 5 -18z m-34 -9 c3 -5 1 -10 -4 -10 -6 0 -11 5 -11 10 0 6 2 10 4 10 3 0 8
-4 11 -10z"/>
<path d="M1860 1370 c-9 -6 -10 -10 -3 -10 6 0 15 5 18 10 8 12 4 12 -15 0z"/>
<path d="M1896 1367 c6 -16 -22 -31 -39 -21 -9 5 -9 4 -1 -5 9 -10 17 -10 33
-2 23 13 27 26 11 36 -5 3 -7 0 -4 -8z"/>
<path d="M2150 1361 c0 -6 -14 -11 -32 -13 -30 -3 -30 -4 -13 -18 11 -9 16
-10 11 -2 -5 8 1 12 18 12 16 0 26 6 26 15 0 8 -2 15 -5 15 -3 0 -5 -4 -5 -9z"/>
<path d="M2351 1346 c-9 -10 -7 -17 6 -27 16 -13 17 -12 4 4 -12 15 -11 17 3
17 9 0 16 -5 16 -12 0 -6 2 -9 5 -6 7 7 -5 38 -15 38 -4 0 -13 -6 -19 -14z"/>
<path d="M2390 1356 c0 -2 7 -7 16 -10 8 -3 12 -2 9 4 -6 10 -25 14 -25 6z"/>
<path d="M2545 1329 c-4 -6 -5 -12 -2 -15 2 -3 7 2 10 11 7 17 1 20 -8 4z"/>
<path d="M2504 1291 c7 -10 -18 -33 -27 -26 -4 3 -5 2 -2 -2 3 -3 -2 -15 -12
-25 -15 -17 -15 -19 3 -39 24 -27 101 -88 92 -73 -10 15 57 78 74 69 7 -3 2 3
-12 14 -43 36 -64 51 -71 51 -4 0 -11 9 -14 20 -3 11 -13 20 -21 20 -8 0 -13
-4 -10 -9z m51 -99 c-5 -5 -45 22 -45 31 0 4 11 0 24 -10 13 -10 23 -19 21
-21z"/>
<path d="M2283 1245 c0 -8 4 -15 9 -15 4 0 8 4 8 9 0 6 -4 12 -8 15 -5 3 -9
-1 -9 -9z"/>
<path d="M2000 1240 c0 -5 5 -10 10 -10 6 0 10 5 10 10 0 6 -4 10 -10 10 -5 0
-10 -4 -10 -10z"/>
<path d="M2252 1225 c-11 -12 -10 -15 3 -15 8 0 15 7 15 15 0 18 -2 18 -18 0z"/>
<path d="M2369 1173 c-12 -16 -12 -17 1 -7 8 6 22 14 30 17 13 5 12 6 -1 6 -9
1 -23 -7 -30 -16z"/>
<path d="M2660 1169 c0 -5 6 -7 13 -3 6 4 -2 -8 -19 -26 l-32 -32 51 -45 50
-45 13 23 c22 39 16 67 -21 104 -35 35 -55 44 -55 24z m52 -64 c3 3 5 -1 5 -9
0 -8 -8 -14 -18 -13 -10 1 -16 3 -14 6 3 2 -1 11 -8 19 -10 13 -9 14 9 4 12
-6 23 -9 26 -7z"/>
<path d="M2316 1094 c-66 -55 -91 -71 -98 -62 -5 9 -7 5 -5 -11 2 -13 23 -43
47 -67 l43 -43 48 41 c26 23 55 43 64 44 10 1 23 8 29 15 8 8 4 8 -14 -1 l-25
-13 19 22 c11 12 26 19 33 17 7 -3 12 0 10 7 -1 7 5 11 13 9 8 -2 12 0 8 4 -4
4 -2 14 4 22 10 12 4 21 -32 53 -25 21 -47 39 -50 39 -3 0 -45 -34 -94 -76z
m74 -36 c0 -4 -4 -8 -10 -8 -5 0 -7 -6 -4 -13 3 -10 -4 -14 -25 -14 -22 0 -28
4 -21 12 6 7 6 15 0 21 -7 7 2 10 25 10 19 0 35 -4 35 -8z"/>
<path d="M2120 1148 c0 -4 4 -8 9 -8 6 0 12 4 15 8 3 5 -1 9 -9 9 -8 0 -15 -4
-15 -9z"/>
<path d="M2320 1130 c-8 -5 -12 -12 -9 -15 4 -3 12 1 19 10 14 17 11 19 -10 5z"/>
<path d="M2559 1079 c-12 -7 -12 -9 0 -9 10 0 6 -9 -12 -28 l-27 -28 42 -40
c46 -41 76 -52 74 -25 0 9 6 15 15 15 30 -2 15 34 -32 80 -33 32 -50 42 -60
35z m59 -70 c12 0 10 -3 -5 -9 -13 -5 -23 -14 -23 -20 0 -7 -6 -5 -15 4 -17
17 -20 30 -5 21 6 -3 13 2 17 11 4 11 8 13 11 6 2 -7 11 -12 20 -13z"/>
<path d="M2454 979 c-5 -8 -3 -10 7 -4 8 4 4 -2 -9 -14 -12 -12 -26 -20 -30
-17 -4 2 -14 0 -22 -6 -12 -8 -12 -9 3 -4 25 8 21 0 -15 -34 l-33 -30 35 -30
c22 -20 37 -27 44 -20 13 13 29 13 21 0 -3 -5 -1 -10 6 -10 14 0 99 48 99 56
0 3 -4 2 -10 -1 -5 -3 -10 -1 -10 4 0 6 4 11 10 11 5 0 9 11 8 25 -1 13 -4 22
-6 20 -3 -2 -24 12 -47 31 -31 25 -45 31 -51 23z m21 -79 c18 -20 18 -21 -1
-14 -17 7 -17 6 -5 -9 19 -24 -2 -21 -24 3 -17 18 -17 20 -2 14 13 -5 16 -2
11 10 -8 22 -1 20 21 -4z m55 -44 c0 -2 -7 -7 -16 -10 -8 -3 -12 -2 -9 4 6 10
25 14 25 6z"/>
<path d="M2340 885 c-7 -9 -11 -17 -9 -20 3 -2 10 5 17 15 14 24 10 26 -8 5z"/>
<path d="M2465 771 c-42 -13 -46 -16 -24 -19 29 -3 99 21 84 29 -6 3 -32 -1
-60 -10z"/>
<path d="M1064 720 c-21 -8 -42 -30 -29 -30 3 0 16 7 29 15 21 14 24 14 30 -1
5 -14 9 -15 19 -5 9 9 9 14 -3 21 -18 11 -19 11 -46 0z"/>
<path d="M2650 726 c0 -2 8 -10 18 -17 15 -13 16 -12 3 4 -13 16 -21 21 -21
13z"/>
<path d="M435 626 c-43 -18 -59 -42 -65 -95 l-5 -46 -27 28 -26 28 -21 -22
c-11 -12 -18 -26 -14 -32 3 -5 8 -5 12 1 10 16 35 -3 27 -19 -4 -8 0 -5 8 5
16 20 16 19 16 -1 0 -12 3 -28 6 -36 7 -19 -25 -50 -47 -44 -14 4 -16 0 -13
-19 9 -49 -12 -22 -25 32 -10 47 -10 58 1 65 9 6 9 9 1 9 -7 0 -17 -8 -22 -17
-6 -10 -11 -12 -11 -5 0 18 4 27 12 25 4 -2 15 9 25 23 14 22 14 27 2 34 -17
11 -54 3 -91 -18 -74 -43 -75 -171 -2 -206 24 -11 35 -12 40 -4 4 7 3 8 -4 4
-7 -4 -12 -2 -12 4 0 7 7 9 16 6 9 -4 24 -1 33 6 9 7 4 -1 -10 -17 -44 -50
-51 -69 -34 -102 19 -36 19 -74 0 -119 -17 -40 -34 -59 -72 -80 -28 -14 -27
-15 25 -12 29 1 56 6 59 11 3 6 1 7 -5 3 -7 -4 -12 -3 -12 2 0 6 6 12 14 15 8
3 25 27 39 54 14 28 30 47 38 45 11 -3 12 -1 1 9 -7 7 -12 38 -12 70 0 37 -5
59 -12 62 -8 3 -6 8 7 13 11 4 26 16 33 26 7 10 17 16 21 14 18 -12 50 27 61
73 6 27 18 52 26 55 8 3 14 1 14 -4 0 -6 19 -10 43 -10 32 0 51 7 77 29 61 51
43 131 -38 162 -30 12 -41 11 -77 -5z m-205 -111 c11 -13 10 -14 -5 -9 -16 6
-17 3 -13 -22 4 -16 3 -47 -2 -69 -6 -31 -8 -34 -9 -12 0 15 -5 27 -10 27 -4
0 -6 -11 -3 -25 2 -14 0 -25 -5 -25 -5 0 -9 8 -9 18 1 9 -3 17 -9 17 -5 0 -9
-3 -7 -7 1 -5 -3 -8 -9 -8 -11 0 -3 37 13 57 5 6 8 19 6 29 -2 10 4 18 17 20
11 2 21 8 23 13 5 14 7 14 22 -4z m130 -135 c-6 -11 -8 -24 -6 -29 3 -5 -1
-11 -9 -15 -19 -7 -19 13 0 38 8 11 16 34 16 50 2 30 2 30 6 4 2 -15 -1 -36
-7 -48z m-124 23 c-10 -10 -19 5 -10 18 6 11 8 11 12 0 2 -7 1 -15 -2 -18z
m92 -38 c-12 -27 -31 -35 -22 -10 4 9 0 15 -7 16 -8 0 -5 4 6 9 32 14 35 12
23 -15z m-160 -10 c-3 -3 -9 2 -12 12 -6 14 -5 15 5 6 7 -7 10 -15 7 -18z
m102 -105 c0 -5 -8 -10 -17 -10 -15 0 -16 2 -3 10 19 12 20 12 20 0z"/>
<path d="M1170 553 c0 -26 12 -39 41 -46 29 -7 48 -37 24 -37 -8 0 -15 -4 -15
-9 0 -5 -9 -7 -20 -4 -11 3 -20 0 -20 -6 0 -18 49 -13 71 8 14 13 19 26 14 40
-6 21 -38 36 -55 26 -5 -3 -10 1 -10 9 0 10 9 16 25 16 14 0 25 5 25 10 0 6
-18 10 -40 10 -31 0 -40 -4 -40 -17z"/>
<path d="M95 509 c-4 -6 -5 -12 -2 -15 2 -3 7 2 10 11 7 17 1 20 -8 4z"/>
<path d="M261 444 c0 -11 3 -14 6 -6 3 7 2 16 -1 19 -3 4 -6 -2 -5 -13z"/>
<path d="M1816 452 c-3 -5 1 -9 9 -9 8 0 12 4 9 9 -3 4 -7 8 -9 8 -2 0 -6 -4
-9 -8z"/>
<path d="M1331 414 c0 -11 3 -14 6 -6 3 7 2 16 -1 19 -3 4 -6 -2 -5 -13z"/>
<path d="M1250 410 c0 -5 4 -10 9 -10 5 0 7 -9 4 -20 -3 -12 0 -20 6 -20 7 0
9 -4 6 -10 -3 -5 0 -10 8 -10 24 0 28 13 8 27 -12 8 -17 20 -14 33 4 14 0 20
-11 20 -9 0 -16 -4 -16 -10z"/>
<path d="M1755 401 c-3 -5 -2 -12 3 -15 5 -3 9 1 9 9 0 17 -3 19 -12 6z"/>
<path d="M70 381 c15 -29 12 -60 -10 -96 l-20 -32 34 11 c25 7 33 15 30 29 -1
10 3 21 11 24 8 3 15 14 15 24 0 11 -5 16 -13 13 -7 -2 -19 7 -27 21 -7 14
-17 25 -22 25 -5 0 -4 -9 2 -19z"/>
<path d="M516 352 c-3 -6 -1 -14 5 -17 14 -9 20 -2 10 14 -6 8 -11 9 -15 3z"/>
<path d="M623 331 c-37 -23 -49 -52 -33 -82 9 -16 9 -23 0 -29 -9 -6 -9 -12 0
-30 10 -19 9 -26 -12 -47 -15 -15 -30 -21 -40 -18 -25 10 -10 37 16 30 11 -2
15 -2 8 1 -6 3 -9 11 -5 17 12 20 10 117 -4 128 -7 7 -13 8 -13 3 0 -5 -4 -4
-8 3 -4 6 -20 12 -37 14 -49 4 -67 0 -59 -13 5 -8 2 -9 -9 -5 -19 7 -23 -9 -4
-16 7 -4 3 -8 -10 -12 -15 -5 -23 -15 -23 -29 0 -44 12 -63 52 -80 49 -22 78
-67 78 -123 0 -43 13 -57 24 -27 3 9 6 30 6 47 0 22 9 38 32 57 l32 27 42 -18
c34 -16 47 -17 75 -8 60 20 79 46 79 105 0 29 -4 55 -9 58 -5 3 -6 -13 -4 -37
4 -37 1 -46 -24 -70 -16 -15 -44 -31 -61 -36 l-31 -9 4 80 c5 89 12 119 29
130 26 18 -62 6 -91 -11z m47 -30 c0 -12 -20 -25 -27 -18 -7 7 6 27 18 27 5 0
9 -4 9 -9z m-3 -51 c-3 -12 -2 -34 3 -50 11 -37 3 -40 -10 -4 -9 24 -4 74 7
74 3 0 3 -9 0 -20z m-183 -16 c3 -8 2 -12 -4 -9 -6 3 -10 10 -10 16 0 14 7 11
14 -7z"/>
<path d="M1137 303 c-11 -11 -8 -23 6 -20 7 1 11 -6 9 -17 -3 -17 -2 -18 12
-7 22 19 21 51 -2 51 -10 0 -22 -3 -25 -7z"/>
<path d="M750 290 c0 -5 5 -10 10 -10 6 0 10 5 10 10 0 6 -4 10 -10 10 -5 0
-10 -4 -10 -10z"/>
<path d="M2557 278 c9 -10 17 -18 19 -18 1 0 0 8 -3 18 -2 10 -11 19 -19 19
-11 0 -11 -4 3 -19z"/>
<path d="M1210 271 c-12 -24 -13 -51 -2 -51 5 0 14 11 20 25 6 14 18 25 27 25
9 0 15 -9 15 -25 0 -16 6 -25 15 -25 18 0 20 41 3 58 -19 19 -66 15 -78 -7z"/>
<path d="M1400 270 c0 -5 5 -10 11 -10 5 0 7 5 4 10 -3 6 -8 10 -11 10 -2 0
-4 -4 -4 -10z"/>
<path d="M360 255 c-7 -9 -11 -17 -9 -20 3 -2 10 5 17 15 14 24 10 26 -8 5z"/>
<path d="M727 255 c10 -29 43 -48 43 -25 0 6 -5 10 -11 10 -7 0 -18 8 -25 18
-13 16 -14 16 -7 -3z"/>
<path d="M2609 258 c7 -10 17 -15 22 -12 5 3 9 1 9 -4 0 -6 8 -13 17 -16 15
-6 15 -4 -2 14 -10 11 -20 18 -23 15 -3 -3 -12 1 -21 8 -14 11 -14 10 -2 -5z"/>
<path d="M700 240 c0 -14 5 -32 10 -40 8 -12 10 -10 10 10 0 14 -5 32 -10 40
-8 12 -10 10 -10 -10z"/>
<path d="M2530 250 c0 -5 5 -10 11 -10 5 0 7 5 4 10 -3 6 -8 10 -11 10 -2 0
-4 -4 -4 -10z"/>
<path d="M2589 187 c19 -20 40 -37 45 -36 6 0 5 3 -2 6 -6 2 -9 10 -5 16 3 7
2 9 -2 4 -5 -4 -22 5 -39 20 -27 25 -27 23 3 -10z"/>
<path d="M2631 217 c2 -1 13 -9 24 -17 19 -14 19 -14 6 3 -7 9 -18 17 -24 17
-6 0 -8 -1 -6 -3z"/>
<path d="M740 200 c0 -5 7 -7 15 -4 8 4 15 8 15 10 0 2 -7 4 -15 4 -8 0 -15
-4 -15 -10z"/>
<path d="M1130 190 c0 -6 7 -10 15 -10 8 0 15 2 15 4 0 2 -7 6 -15 10 -8 3
-15 1 -15 -4z"/>
<path d="M1205 170 c3 -5 8 -10 11 -10 2 0 4 5 4 10 0 6 -5 10 -11 10 -5 0 -7
-4 -4 -10z"/>
<path d="M1352 96 c-26 -101 -26 -96 -4 -96 10 0 22 12 28 28 13 34 18 152 7
152 -5 0 -19 -38 -31 -84z"/>
<path d="M355 110 c-3 -5 0 -12 6 -16 8 -4 9 -3 5 4 -10 16 2 15 19 -1 11 -11
9 -16 -8 -27 -15 -9 -22 -10 -25 -1 -2 6 -9 8 -15 4 -6 -4 -8 0 -4 10 9 24 0
21 -14 -4 -7 -13 -7 -19 -1 -15 12 7 26 -29 17 -44 -4 -6 -11 -8 -16 -5 -5 4
-9 1 -9 -4 0 -7 29 -10 80 -9 44 1 80 5 80 9 0 4 3 16 6 26 4 13 3 15 -4 4 -7
-10 -11 -10 -17 -1 -4 7 -2 16 4 20 9 5 9 13 0 33 -9 21 -15 24 -26 16 -7 -6
-13 -8 -13 -3 0 12 -58 16 -65 4z m75 -45 c0 -9 -6 -15 -12 -14 -28 3 -37 -2
-32 -16 5 -11 2 -13 -10 -9 -23 9 -20 17 12 36 34 22 42 22 42 3z"/>
<path d="M1265 110 c3 -5 8 -10 11 -10 2 0 4 5 4 10 0 6 -5 10 -11 10 -5 0 -7
-4 -4 -10z"/>
<path d="M1256 87 c3 -10 9 -15 12 -12 3 3 0 11 -7 18 -10 9 -11 8 -5 -6z"/>
<path d="M1227 79 c7 -7 15 -10 18 -7 3 3 -2 9 -12 12 -14 6 -15 5 -6 -5z"/>
</g>
</svg>
